<svg
 xmlns="http://www.w3.org/2000/svg"
 xmlns:xlink="http://www.w3.org/1999/xlink"
 width="18px" height="20px">
<path
 d="M13.606,20.000 C11.650,20.000 9.992,18.589 9.424,16.641 C9.287,16.173 9.213,15.674 9.213,15.156 C9.213,15.130 9.214,15.104 9.214,15.078 C9.252,12.491 11.127,10.398 13.465,10.316 C13.512,10.315 13.559,10.312 13.606,10.312 C13.998,10.312 14.378,10.370 14.740,10.476 C16.617,11.027 18.000,12.913 18.000,15.156 C18.000,17.831 16.033,20.000 13.606,20.000 ZM13.606,11.953 C12.002,11.953 10.701,13.387 10.701,15.156 C10.701,16.925 12.002,18.359 13.606,18.359 C15.211,18.359 16.512,16.925 16.512,15.156 C16.512,13.387 15.211,11.953 13.606,11.953 ZM14.031,17.500 L13.039,17.500 L13.039,15.781 L11.480,15.781 L11.480,14.687 L13.039,14.687 L13.039,12.969 L14.031,12.969 L14.031,14.687 L15.591,14.687 L15.591,15.781 L14.031,15.781 L14.031,17.500 ZM11.870,8.516 C11.870,9.201 11.366,9.756 10.745,9.756 C10.124,9.756 9.620,9.201 9.620,8.516 C9.620,7.831 10.124,7.275 10.745,7.275 C11.366,7.275 11.870,7.831 11.870,8.516 ZM3.995,9.756 C3.374,9.756 2.870,9.201 2.870,8.516 C2.870,7.831 3.374,7.275 3.995,7.275 C4.616,7.275 5.120,7.831 5.120,8.516 C5.120,9.201 4.616,9.756 3.995,9.756 ZM3.995,13.506 C3.374,13.506 2.870,12.951 2.870,12.266 C2.870,11.581 3.374,11.025 3.995,11.025 C4.616,11.025 5.120,11.581 5.120,12.266 C5.120,12.951 4.616,13.506 3.995,13.506 ZM13.465,9.071 L13.465,6.172 L1.276,6.172 L1.276,13.672 C1.276,14.190 1.656,14.609 2.126,14.609 L7.986,14.609 C7.978,14.739 7.973,14.869 7.973,15.000 C7.973,15.401 8.010,15.793 8.079,16.172 L1.134,16.172 C0.508,16.172 -0.000,15.612 -0.000,14.922 L-0.000,3.047 C-0.000,2.357 0.508,1.797 1.134,1.797 L2.055,1.797 L2.055,3.125 C2.055,3.857 2.595,4.453 3.260,4.453 L3.685,4.453 C4.349,4.453 4.890,3.857 4.890,3.125 L4.890,1.797 L9.850,1.797 L9.850,3.125 C9.850,3.857 10.391,4.453 11.055,4.453 L11.480,4.453 C12.145,4.453 12.685,3.857 12.685,3.125 L12.685,1.797 L13.606,1.797 C14.232,1.797 14.740,2.357 14.740,3.047 L14.740,9.165 C14.418,9.099 14.087,9.062 13.748,9.062 C13.653,9.062 13.558,9.065 13.465,9.071 ZM11.480,3.672 L11.055,3.672 C10.781,3.672 10.559,3.427 10.559,3.125 L10.559,1.797 L10.559,0.547 C10.559,0.245 10.781,-0.000 11.055,-0.000 L11.480,-0.000 C11.754,-0.000 11.976,0.245 11.976,0.547 L11.976,1.797 L11.976,3.125 C11.976,3.427 11.754,3.672 11.480,3.672 ZM3.685,3.672 L3.260,3.672 C2.986,3.672 2.764,3.427 2.764,3.125 L2.764,1.797 L2.764,0.547 C2.764,0.245 2.986,-0.000 3.260,-0.000 L3.685,-0.000 C3.959,-0.000 4.181,0.245 4.181,0.547 L4.181,1.797 L4.181,3.125 C4.181,3.427 3.959,3.672 3.685,3.672 ZM7.370,9.756 C6.749,9.756 6.245,9.201 6.245,8.516 C6.245,7.831 6.749,7.275 7.370,7.275 C7.991,7.275 8.495,7.831 8.495,8.516 C8.495,9.201 7.991,9.756 7.370,9.756 ZM6.245,12.266 C6.245,11.581 6.749,11.025 7.370,11.025 C7.991,11.025 8.495,11.581 8.495,12.266 C8.495,12.951 7.991,13.506 7.370,13.506 C6.749,13.506 6.245,12.951 6.245,12.266 Z"/>
</svg>
