<svg 
 xmlns="http://www.w3.org/2000/svg"
 xmlns:xlink="http://www.w3.org/1999/xlink"
 width="12px" height="10px">
<path
 d="M11.779,4.517 L7.503,0.192 C7.242,-0.071 6.819,-0.071 6.558,0.192 C6.297,0.456 6.297,0.884 6.558,1.148 L9.580,4.167 L0.798,4.167 C0.429,4.167 -0.000,4.622 -0.000,4.995 C-0.000,5.368 0.429,5.833 0.798,5.833 L9.580,5.833 L6.558,8.841 C6.297,9.105 6.297,9.533 6.558,9.797 C6.688,9.929 6.860,9.995 7.031,9.995 C7.202,9.995 7.373,9.929 7.503,9.797 L11.779,5.472 C12.040,5.209 12.040,4.781 11.779,4.517 Z"/>
</svg>
