<svg 
 xmlns="http://www.w3.org/2000/svg"
 xmlns:xlink="http://www.w3.org/1999/xlink"
 width="12px" height="10px">
<path
 d="M0.221,4.517 L4.497,0.192 C4.758,-0.071 5.181,-0.071 5.442,0.192 C5.703,0.456 5.703,0.884 5.442,1.148 L2.420,4.167 L11.202,4.167 C11.571,4.167 12.000,4.622 12.000,4.995 C12.000,5.368 11.571,5.833 11.202,5.833 L2.420,5.833 L5.442,8.841 C5.703,9.105 5.703,9.533 5.442,9.797 C5.311,9.929 5.140,9.995 4.969,9.995 C4.798,9.995 4.627,9.929 4.497,9.797 L0.221,5.472 C-0.040,5.209 -0.040,4.781 0.221,4.517 Z"/>
</svg>
