<svg
 xmlns="http://www.w3.org/2000/svg"
 xmlns:xlink="http://www.w3.org/1999/xlink"
 width="17px" height="11px">
<path
 d="M16.405,7.587 C16.405,9.197 14.998,10.502 13.262,10.502 L3.537,10.502 C1.801,10.502 0.394,9.197 0.394,7.587 C0.394,6.133 1.542,4.929 3.043,4.709 C3.024,4.607 3.013,4.502 3.013,4.394 C3.013,3.374 3.905,2.547 5.005,2.547 C5.496,2.547 5.945,2.711 6.292,2.985 C6.910,1.693 7.703,0.514 9.927,0.514 C12.624,0.514 13.903,2.443 13.903,4.478 C13.903,4.564 13.899,4.648 13.893,4.732 C15.326,5.002 16.405,6.178 16.405,7.587 Z"/>
</svg>
