<svg
 xmlns="http://www.w3.org/2000/svg"
 xmlns:xlink="http://www.w3.org/1999/xlink"
 width="18px" height="18px">
<path fill-rule="evenodd"  fill="rgb(172, 179, 187)"
 d="M16.928,14.415 L14.263,10.491 L14.263,6.017 C14.263,2.699 11.718,-0.002 8.587,-0.002 C5.457,-0.002 2.911,2.698 2.911,6.017 L2.911,10.491 L0.246,14.415 C0.061,14.687 0.035,15.047 0.179,15.346 C0.323,15.644 0.613,15.832 0.930,15.832 L6.554,15.832 C6.554,15.839 6.552,15.843 6.552,15.848 C6.552,17.040 7.464,18.005 8.587,18.005 C9.710,18.005 10.621,17.040 10.621,15.848 C10.621,15.842 10.619,15.838 10.619,15.832 L16.244,15.832 C16.561,15.832 16.851,15.644 16.995,15.346 C17.139,15.047 17.113,14.687 16.928,14.415 ZM2.576,14.044 L4.438,11.303 C4.542,11.150 4.597,10.968 4.597,10.780 L4.597,6.017 C4.597,3.684 6.387,1.785 8.588,1.785 C10.788,1.785 12.578,3.684 12.578,6.017 L12.578,10.780 C12.578,10.967 12.634,11.150 12.737,11.303 L14.599,14.044 L2.576,14.044 Z"/>
</svg>
