<svg
 xmlns="http://www.w3.org/2000/svg"
 xmlns:xlink="http://www.w3.org/1999/xlink"
 width="15px" height="16px">
<path
 d="M13.487,16.000 L1.513,16.000 C0.679,16.000 0.000,15.286 0.000,14.411 L0.000,3.290 C0.000,2.414 0.679,1.701 1.513,1.701 L3.090,1.701 L3.090,0.772 C3.090,0.346 3.419,-0.000 3.825,-0.000 L3.941,-0.000 C4.348,-0.000 4.677,0.346 4.677,0.772 L4.677,1.701 L10.305,1.701 L10.305,0.772 C10.305,0.346 10.634,-0.000 11.040,-0.000 L11.156,-0.000 C11.562,-0.000 11.891,0.346 11.891,0.772 L11.891,1.701 L13.487,1.701 C14.321,1.701 15.000,2.414 15.000,3.290 L15.000,14.411 C15.000,15.286 14.321,16.000 13.487,16.000 ZM13.289,5.546 L1.711,5.546 L1.711,14.204 L13.289,14.204 L13.289,5.546 ZM5.026,8.359 L6.419,8.142 L7.046,6.818 C7.132,6.637 7.308,6.523 7.500,6.523 C7.692,6.523 7.868,6.637 7.953,6.818 L8.581,8.142 L9.974,8.359 C10.164,8.388 10.322,8.529 10.382,8.721 C10.441,8.913 10.392,9.124 10.254,9.265 L9.249,10.301 L9.482,11.759 C9.515,11.958 9.436,12.159 9.281,12.278 C9.192,12.345 9.088,12.379 8.983,12.379 C8.903,12.379 8.822,12.359 8.748,12.319 L7.500,11.635 L6.251,12.319 C6.081,12.412 5.874,12.396 5.719,12.278 C5.563,12.159 5.485,11.958 5.517,11.759 L5.751,10.301 L4.745,9.265 C4.608,9.124 4.559,8.913 4.618,8.721 C4.678,8.529 4.835,8.388 5.026,8.359 Z"/>
</svg>
