<svg
 xmlns="http://www.w3.org/2000/svg"
 xmlns:xlink="http://www.w3.org/1999/xlink"
 width="15px" height="15px">
<path
 d="M14.369,6.128 C13.843,3.376 11.624,1.157 8.872,0.631 C3.948,-0.309 -0.309,3.948 0.631,8.872 C1.157,11.624 3.376,13.843 6.128,14.369 C11.051,15.309 15.309,11.051 14.369,6.128 ZM10.744,10.744 C10.573,10.915 10.349,11.000 10.125,11.000 C9.901,11.000 9.677,10.915 9.506,10.744 L6.881,8.119 C6.717,7.955 6.625,7.732 6.625,7.500 L6.625,4.000 C6.625,3.516 7.017,3.125 7.500,3.125 C7.983,3.125 8.375,3.516 8.375,4.000 L8.375,7.138 L10.744,9.506 C11.085,9.848 11.085,10.402 10.744,10.744 Z"/>
</svg>
