<svg
 xmlns="http://www.w3.org/2000/svg"
 xmlns:xlink="http://www.w3.org/1999/xlink"
 width="15px" height="15px">
<path fill="rgb(164, 170, 182)"
 d="M14.176,3.411 L9.936,7.655 L14.176,11.899 C14.807,12.530 14.807,13.553 14.176,14.184 C13.861,14.499 13.448,14.657 13.035,14.657 C12.622,14.657 12.208,14.499 11.893,14.184 L7.652,9.940 L3.412,14.184 C3.096,14.499 2.683,14.657 2.270,14.657 C1.857,14.657 1.444,14.499 1.129,14.184 C0.498,13.553 0.498,12.530 1.129,11.899 L5.369,7.655 L1.128,3.411 C0.498,2.780 0.498,1.757 1.128,1.126 C1.759,0.495 2.781,0.495 3.411,1.126 L7.652,5.370 L11.893,1.126 C12.524,0.495 13.546,0.495 14.176,1.126 C14.807,1.757 14.807,2.780 14.176,3.411 Z"/>
</svg>
