<svg xmlns="http://www.w3.org/2000/svg" width="10" height="10" viewBox="0 0 10 10">
  <metadata><?xpacket begin="﻿" id="W5M0MpCehiHzreSzNTczkc9d"?>
<x:xmpmeta xmlns:x="adobe:ns:meta/" x:xmptk="Adobe XMP Core 5.6-c138 79.159824, 2016/09/14-01:09:01        ">
   <rdf:RDF xmlns:rdf="http://www.w3.org/1999/02/22-rdf-syntax-ns#">
      <rdf:Description rdf:about=""/>
   </rdf:RDF>
</x:xmpmeta>
                                                                                                    
                                                                                                    
                                                                                                    
                                                                                                    
                                                                                                    
                                                                                                    
                                                                                                    
                                                                                                    
                                                                                                    
                                                                                                    
                                                                                                    
                                                                                                    
                                                                                                    
                                                                                                    
                                                                                                    
                                                                                                    
                                                                                                    
                                                                                                    
                                                                                                    
                                                                                                    
                           
<?xpacket end="w"?></metadata>
<defs>
    <style>
      .cls-1 {
        fill: #a6acb6;
        fill-rule: evenodd;
      }
    </style>
  </defs>
  <path id="Forma_1" data-name="Forma 1" class="cls-1" d="M664.438,235.16a0.222,0.222,0,0,1,0-.32l3.425-3.424a0.442,0.442,0,0,0,0-.64l-0.639-.639A0.5,0.5,0,0,0,666.9,230a0.417,0.417,0,0,0-.32.137l-3.424,3.425a0.222,0.222,0,0,1-.32,0l-3.424-3.425a0.442,0.442,0,0,0-.64,0l-0.639.639a0.442,0.442,0,0,0,0,.64l3.425,3.424a0.222,0.222,0,0,1,0,.32l-3.425,3.424a0.442,0.442,0,0,0,0,.64l0.639,0.639a0.442,0.442,0,0,0,.64,0l3.424-3.425a0.222,0.222,0,0,1,.32,0l3.424,3.425a0.442,0.442,0,0,0,.64,0l0.639-.639a0.442,0.442,0,0,0,0-.64Z" transform="translate(-658 -230)"/>
</svg>
