<svg
 xmlns="http://www.w3.org/2000/svg"
 xmlns:xlink="http://www.w3.org/1999/xlink"
 width="10px" height="15px">
<path
 d="M9.679,4.156 L0.321,4.156 C0.144,4.156 -0.000,4.009 -0.000,3.829 L-0.000,2.717 C-0.000,2.536 0.144,2.390 0.321,2.390 L9.679,2.390 C9.856,2.390 10.000,2.537 10.000,2.717 L10.000,3.829 C10.000,4.009 9.856,4.156 9.679,4.156 ZM6.408,1.166 C6.408,0.987 6.264,0.840 6.087,0.840 L3.911,0.840 C3.735,0.840 3.590,0.987 3.590,1.166 L3.590,1.738 L2.949,1.738 L2.949,1.003 C2.949,0.553 3.308,0.187 3.751,0.187 L6.249,0.187 C6.692,0.187 7.051,0.553 7.051,1.003 L7.051,1.738 L6.408,1.738 L6.408,1.166 ZM9.601,13.861 C9.601,14.041 9.456,14.187 9.280,14.187 C7.141,14.187 2.861,14.187 0.722,14.187 C0.544,14.187 0.401,14.042 0.401,13.861 C0.401,11.598 0.401,4.808 0.401,4.808 L9.601,4.808 C9.601,4.808 9.601,11.598 9.601,13.861 ZM3.154,6.564 C3.154,6.269 2.918,6.031 2.630,6.031 L2.619,6.031 C2.328,6.031 2.094,6.270 2.094,6.564 L2.094,12.433 C2.094,12.729 2.330,12.967 2.619,12.967 L2.630,12.967 C2.920,12.967 3.154,12.727 3.154,12.433 L3.154,6.564 ZM5.531,6.564 C5.531,6.269 5.295,6.031 5.006,6.031 L4.995,6.031 C4.705,6.031 4.471,6.270 4.471,6.564 L4.471,12.433 C4.471,12.729 4.707,12.967 4.995,12.967 L5.006,12.967 C5.297,12.967 5.531,12.727 5.531,12.433 L5.531,6.564 ZM7.907,6.564 C7.907,6.269 7.672,6.031 7.383,6.031 L7.372,6.031 C7.081,6.031 6.847,6.270 6.847,6.564 L6.847,12.433 C6.847,12.729 7.083,12.967 7.372,12.967 L7.383,12.967 C7.673,12.967 7.907,12.727 7.907,12.433 L7.907,6.564 Z"/>
</svg>
