<svg
 xmlns="http://www.w3.org/2000/svg"
 xmlns:xlink="http://www.w3.org/1999/xlink"
 width="41px" height="41px">
<path d="M24.737,39.721 C14.060,42.132 3.414,35.410 1.003,24.735 C-1.408,14.058 5.317,3.412 15.993,1.001 C26.667,-1.409 37.311,5.315 39.722,15.992 C42.132,26.667 35.411,37.312 24.737,39.721 ZM26.898,18.888 C26.084,15.285 22.492,13.017 18.887,13.831 C15.285,14.644 13.017,18.236 13.830,21.839 C14.644,25.441 18.236,27.710 21.838,26.896 C25.442,26.082 27.711,22.490 26.898,18.888 ZM37.689,17.104 C37.260,15.203 36.544,14.197 36.463,14.088 L36.321,13.897 L27.596,18.506 L27.533,18.538 L27.641,18.778 C27.652,18.797 27.727,18.977 27.787,19.243 C27.865,19.588 27.882,19.938 27.836,20.256 L27.798,20.507 L37.661,22.853 L37.740,22.871 L37.787,22.575 C38.102,20.626 38.069,18.785 37.689,17.104 ZM21.057,23.427 C19.367,23.809 17.682,22.747 17.299,21.055 C16.918,19.365 17.983,17.678 19.673,17.296 C21.364,16.915 23.050,17.980 23.432,19.670 C23.813,21.360 22.748,23.045 21.057,23.427 Z"/>
</svg>
