<svg
 xmlns="http://www.w3.org/2000/svg"
 xmlns:xlink="http://www.w3.org/1999/xlink"
 width="10px" height="14px">
<path fill="rgb(130, 130, 130)"
 d="M8.571,-0.000 L1.429,-0.000 C0.643,-0.000 -0.000,0.630 -0.000,1.400 L-0.000,12.600 C-0.000,13.370 0.643,14.000 1.429,14.000 L8.571,14.000 C9.357,14.000 10.000,13.370 10.000,12.600 L10.000,1.400 C10.000,0.630 9.357,-0.000 8.571,-0.000 ZM5.000,1.400 C5.786,1.400 6.428,2.030 6.428,2.800 C6.428,3.570 5.786,4.200 5.000,4.200 C4.214,4.200 3.571,3.570 3.571,2.800 C3.571,2.030 4.214,1.400 5.000,1.400 ZM5.000,12.600 C3.000,12.600 1.429,11.060 1.429,9.100 C1.429,7.140 3.000,5.600 5.000,5.600 C7.000,5.600 8.571,7.140 8.571,9.100 C8.571,11.060 7.000,12.600 5.000,12.600 ZM5.000,7.000 C3.786,7.000 2.857,7.910 2.857,9.100 C2.857,10.290 3.786,11.200 5.000,11.200 C6.214,11.200 7.143,10.290 7.143,9.100 C7.143,7.910 6.214,7.000 5.000,7.000 Z"/>
</svg>
