<svg
 xmlns="http://www.w3.org/2000/svg"
 xmlns:xlink="http://www.w3.org/1999/xlink"
 width="11px" height="12px">
<path
 d="M9.890,12.000 L1.110,12.000 C0.498,12.000 -0.000,11.465 -0.000,10.808 L-0.000,2.467 C-0.000,1.810 0.498,1.276 1.110,1.276 L2.266,1.276 L2.266,0.579 C2.266,0.259 2.507,-0.000 2.805,-0.000 L2.890,-0.000 C3.188,-0.000 3.429,0.259 3.429,0.579 L3.429,1.276 L7.557,1.276 L7.557,0.579 C7.557,0.259 7.798,-0.000 8.096,-0.000 L8.181,-0.000 C8.479,-0.000 8.720,0.259 8.720,0.579 L8.720,1.276 L9.890,1.276 C10.502,1.276 11.000,1.810 11.000,2.467 L11.000,10.808 C11.000,11.465 10.502,12.000 9.890,12.000 ZM9.745,4.160 L1.254,4.160 L1.254,10.653 L9.745,10.653 L9.745,4.160 ZM3.686,6.269 L4.707,6.106 L5.167,5.113 C5.230,4.978 5.359,4.892 5.500,4.892 C5.641,4.892 5.770,4.978 5.832,5.113 L6.293,6.106 L7.314,6.269 C7.453,6.291 7.570,6.397 7.613,6.541 C7.656,6.685 7.620,6.843 7.520,6.949 L6.783,7.725 L6.954,8.819 C6.977,8.968 6.920,9.119 6.806,9.208 C6.741,9.259 6.665,9.284 6.588,9.284 C6.529,9.284 6.469,9.269 6.415,9.239 L5.500,8.726 L4.584,9.239 C4.459,9.309 4.308,9.297 4.194,9.208 C4.080,9.119 4.023,8.968 4.046,8.819 L4.217,7.725 L3.480,6.949 C3.379,6.843 3.343,6.685 3.387,6.540 C3.430,6.397 3.546,6.291 3.686,6.269 Z"/>
</svg>
