<svg 
 xmlns="http://www.w3.org/2000/svg"
 xmlns:xlink="http://www.w3.org/1999/xlink"
 width="12px" height="12px">
<path
 d="M11.540,4.648 L10.621,4.648 C10.345,4.648 10.161,4.462 10.161,4.183 L10.161,3.719 C10.161,3.486 9.885,3.393 9.747,3.533 L7.908,5.392 C7.724,5.578 7.448,5.578 7.310,5.438 L6.667,4.788 C6.483,4.602 6.483,4.323 6.667,4.137 L8.506,2.278 C8.644,2.092 8.506,1.859 8.322,1.859 L7.862,1.859 C7.586,1.859 7.402,1.673 7.402,1.394 L7.402,0.465 C7.402,0.186 7.586,-0.000 7.862,-0.000 L11.540,-0.000 C11.816,-0.000 12.000,0.186 12.000,0.465 L12.000,4.183 C12.000,4.462 11.816,4.648 11.540,4.648 ZM3.540,9.761 C3.402,9.947 3.540,10.180 3.724,10.180 L4.184,10.180 C4.460,10.180 4.644,10.366 4.644,10.645 L4.644,11.574 C4.644,11.853 4.460,12.039 4.138,11.993 L0.460,11.993 C0.184,11.993 -0.000,11.807 -0.000,11.528 L-0.000,7.809 C-0.000,7.530 0.184,7.344 0.460,7.344 L1.379,7.344 C1.655,7.344 1.839,7.530 1.839,7.809 L1.839,8.274 C1.839,8.506 2.115,8.599 2.253,8.460 L4.092,6.601 C4.276,6.415 4.552,6.415 4.736,6.601 L5.379,7.251 C5.563,7.437 5.563,7.716 5.379,7.902 L3.540,9.761 Z"/>
</svg>
