<svg
 xmlns="http://www.w3.org/2000/svg"
 xmlns:xlink="http://www.w3.org/1999/xlink"
 width="13px" height="25px">
<path
 d="M12.510,0.003 L9.392,-0.002 C5.889,-0.002 3.625,2.413 3.625,6.151 L3.625,8.988 L0.490,8.988 C0.219,8.988 -0.000,9.216 -0.000,9.498 L-0.000,13.608 C-0.000,13.890 0.219,14.118 0.490,14.118 L3.625,14.118 L3.625,24.489 C3.625,24.771 3.844,24.998 4.116,24.998 L8.206,24.998 C8.477,24.998 8.696,24.770 8.696,24.489 L8.696,14.118 L12.362,14.118 C12.632,14.118 12.852,13.890 12.852,13.608 L12.853,9.498 C12.853,9.363 12.802,9.233 12.710,9.137 C12.618,9.042 12.493,8.988 12.363,8.988 L8.696,8.988 L8.696,6.583 C8.696,5.427 8.961,4.840 10.409,4.840 L12.510,4.840 C12.780,4.840 13.000,4.611 13.000,4.330 L13.000,0.513 C13.000,0.232 12.780,0.004 12.510,0.003 Z"/>
</svg>
