<svg
 xmlns="http://www.w3.org/2000/svg"
 xmlns:xlink="http://www.w3.org/1999/xlink"
 width="12px" height="12px">
<path
 d="M9.102,9.569 C8.667,8.389 7.145,7.618 6.172,7.235 C6.783,6.471 7.367,5.286 7.367,3.988 C7.367,2.773 6.903,1.870 6.229,1.290 C6.550,0.443 7.265,0.002 8.097,0.002 C9.225,0.002 10.154,0.811 10.154,2.355 C10.154,3.359 9.752,4.380 9.170,5.013 L9.173,5.013 C8.950,5.731 9.307,5.822 9.364,5.842 C10.605,6.276 11.998,7.093 11.999,7.931 C11.999,8.150 11.999,8.018 11.999,8.236 C11.999,9.149 10.635,9.480 9.102,9.569 ZM5.293,6.816 L5.296,6.816 C5.058,7.580 5.438,7.986 5.499,8.007 C6.818,8.468 8.301,9.338 8.301,10.229 C8.301,10.463 8.301,10.322 8.301,10.553 C8.301,11.731 6.166,11.999 4.163,11.999 C2.162,11.999 0.001,11.731 0.001,10.553 C0.001,10.321 0.001,10.462 0.001,10.229 C0.001,9.364 1.476,8.487 2.733,8.007 C2.824,7.971 3.258,7.497 3.015,6.824 C2.392,6.151 1.907,5.062 1.907,3.989 C1.907,2.347 2.949,1.486 4.150,1.486 C5.352,1.486 6.442,2.347 6.442,3.989 C6.442,5.058 5.912,6.142 5.293,6.816 Z"/>
</svg>
