<svg 
 xmlns="http://www.w3.org/2000/svg"
 xmlns:xlink="http://www.w3.org/1999/xlink"
 width="19px" height="35px">
<path fill-rule=""  fill=""
 d="M13.155,17.500 L0.330,3.718 C0.113,3.484 0.004,3.215 0.004,2.911 C0.004,2.607 0.113,2.338 0.330,2.105 L1.962,0.352 C2.180,0.118 2.430,0.001 2.712,0.001 C2.995,0.001 3.245,0.118 3.463,0.352 L18.670,16.694 C18.887,16.927 18.996,17.196 18.996,17.500 C18.996,17.804 18.887,18.073 18.670,18.307 L3.463,34.649 C3.246,34.883 2.995,34.999 2.713,34.999 C2.430,34.999 2.180,34.883 1.962,34.649 L0.330,32.896 C0.113,32.662 0.005,32.393 0.005,32.089 C0.005,31.785 0.113,31.516 0.330,31.283 L13.155,17.500 Z"/>
</svg>
