<svg 
 xmlns="http://www.w3.org/2000/svg"
 xmlns:xlink="http://www.w3.org/1999/xlink"
 width="19px" height="35px">
<path fill-rule=""  fill=""
 d="M5.845,17.500 L18.669,3.718 C18.887,3.484 18.996,3.215 18.996,2.911 C18.996,2.607 18.887,2.338 18.669,2.105 L17.038,0.352 C16.820,0.118 16.570,0.001 16.288,0.001 C16.005,0.001 15.755,0.118 15.537,0.352 L0.330,16.694 C0.113,16.927 0.004,17.196 0.004,17.500 C0.004,17.804 0.113,18.073 0.330,18.307 L15.537,34.649 C15.754,34.883 16.005,34.999 16.287,34.999 C16.570,34.999 16.820,34.883 17.038,34.649 L18.669,32.896 C18.887,32.662 18.995,32.393 18.995,32.089 C18.995,31.785 18.887,31.516 18.669,31.283 L5.845,17.500 Z"/>
</svg>
