<svg
 xmlns="http://www.w3.org/2000/svg"
 xmlns:xlink="http://www.w3.org/1999/xlink"
 width="29px" height="29px">
<path fill="#fff"
 d="M28.493,18.225 C27.539,21.668 25.375,24.584 22.528,26.513 L19.700,21.615 C21.056,20.617 22.122,19.245 22.735,17.649 L16.077,17.649 C15.554,17.649 15.131,17.226 15.131,16.704 L15.131,12.924 C15.131,12.402 15.554,11.979 16.077,11.979 L27.959,11.979 C28.442,11.979 28.845,12.343 28.902,12.823 C29.104,14.543 29.011,16.353 28.493,18.225 ZM21.367,7.634 C21.024,7.977 20.479,8.005 20.106,7.696 C18.581,6.435 16.630,5.674 14.501,5.674 C11.580,5.674 8.994,7.109 7.386,9.302 L2.443,6.448 C5.057,2.549 9.506,0.004 14.491,0.001 C18.134,-0.002 21.464,1.339 24.012,3.556 C24.427,3.916 24.447,4.554 24.059,4.942 L21.367,7.634 ZM5.674,14.500 C5.674,15.768 5.949,16.973 6.434,18.066 L1.515,20.905 C0.546,18.959 -0.000,16.781 -0.000,14.500 C0.000,12.188 0.541,10.013 1.495,8.084 L6.434,10.936 C5.949,12.028 5.674,13.232 5.674,14.500 ZM14.501,23.326 C15.770,23.326 16.974,23.050 18.065,22.565 L20.895,27.466 C18.953,28.442 16.782,29.000 14.501,29.000 C9.454,29.000 5.055,26.402 2.463,22.542 L7.386,19.700 C8.992,21.892 11.577,23.326 14.501,23.326 Z"/>
</svg>
