<svg
 xmlns="http://www.w3.org/2000/svg"
 xmlns:xlink="http://www.w3.org/1999/xlink"
 width="13px" height="13px">
<path
 d="M12.122,7.262 C12.042,7.345 11.950,7.386 11.846,7.386 C11.741,7.386 11.649,7.345 11.569,7.262 L6.844,2.379 L2.118,7.262 C2.038,7.345 1.946,7.386 1.842,7.386 C1.738,7.386 1.645,7.345 1.565,7.262 L0.964,6.641 C0.884,6.558 0.844,6.463 0.844,6.355 C0.844,6.247 0.884,6.152 0.964,6.069 L6.567,0.279 C6.647,0.196 6.739,0.155 6.844,0.155 C6.948,0.155 7.040,0.196 7.120,0.279 L12.723,6.069 C12.803,6.152 12.843,6.247 12.843,6.355 C12.843,6.463 12.803,6.558 12.723,6.641 L12.122,7.262 ZM6.567,5.050 C6.647,4.968 6.739,4.926 6.844,4.926 C6.948,4.926 7.040,4.968 7.120,5.050 L12.723,10.840 C12.803,10.923 12.843,11.018 12.843,11.126 C12.843,11.234 12.803,11.329 12.723,11.412 L12.122,12.033 C12.042,12.116 11.950,12.157 11.846,12.157 C11.741,12.157 11.649,12.116 11.569,12.033 L6.844,7.150 L2.118,12.033 C2.038,12.116 1.946,12.157 1.842,12.157 C1.738,12.157 1.645,12.116 1.565,12.033 L0.964,11.412 C0.884,11.329 0.844,11.234 0.844,11.126 C0.844,11.018 0.884,10.923 0.964,10.840 L6.567,5.050 Z"/>
</svg>
