<svg
 xmlns="http://www.w3.org/2000/svg"
 xmlns:xlink="http://www.w3.org/1999/xlink"
 width="25px" height="25px">
<path
 d="M18.100,24.998 L6.899,24.998 C3.095,24.998 -0.000,21.903 -0.000,18.099 L-0.000,6.898 C-0.000,3.093 3.095,-0.002 6.899,-0.002 L18.100,-0.002 C21.905,-0.002 25.000,3.093 25.000,6.898 L25.000,18.099 C25.000,21.903 21.905,24.998 18.100,24.998 ZM22.782,18.099 L22.782,6.898 C22.782,4.316 20.682,2.217 18.100,2.217 L6.899,2.217 C4.318,2.217 2.218,4.316 2.218,6.898 L2.218,18.099 C2.218,20.681 4.318,22.781 6.899,22.780 L18.101,22.780 C20.682,22.780 22.782,20.681 22.782,18.099 L22.782,18.099 ZM19.212,7.429 C18.784,7.429 18.364,7.255 18.063,6.953 C17.760,6.650 17.585,6.230 17.585,5.803 C17.585,5.374 17.759,4.954 18.063,4.652 C18.365,4.349 18.784,4.176 19.212,4.176 C19.641,4.176 20.060,4.349 20.362,4.652 C20.665,4.954 20.838,5.374 20.838,5.803 C20.838,6.230 20.665,6.650 20.362,6.953 C20.059,7.255 19.641,7.429 19.212,7.429 ZM12.500,18.940 C8.948,18.940 6.058,16.051 6.058,12.499 C6.058,8.947 8.948,6.057 12.500,6.057 C16.052,6.057 18.942,8.947 18.942,12.499 C18.942,16.051 16.052,18.940 12.500,18.940 ZM12.500,8.275 C10.171,8.275 8.276,10.170 8.276,12.499 C8.276,14.827 10.171,16.722 12.500,16.722 C14.829,16.722 16.723,14.827 16.723,12.499 C16.723,10.170 14.829,8.275 12.500,8.275 Z"/>
</svg>
