<svg
 xmlns="http://www.w3.org/2000/svg"
 xmlns:xlink="http://www.w3.org/1999/xlink"
 width="19px" height="14px">
<path fill-rule="evenodd"  fill="rgb(172, 179, 187)"
 d="M17.812,-0.000 L1.187,-0.000 C0.532,-0.000 -0.000,0.482 -0.000,1.077 L-0.000,12.923 C-0.000,13.518 0.532,14.000 1.187,14.000 L17.812,14.000 C18.469,14.000 19.000,13.518 19.000,12.923 L19.000,1.077 C19.000,0.482 18.469,-0.000 17.812,-0.000 ZM17.219,12.384 L1.781,12.384 L1.781,4.147 L8.736,9.440 C8.958,9.608 9.229,9.692 9.500,9.692 C9.771,9.692 10.042,9.608 10.264,9.440 L17.219,4.147 L17.219,12.384 ZM17.219,2.038 L9.500,7.912 L1.781,2.038 L1.781,1.615 L17.219,1.615 L17.219,2.038 Z"/>
</svg>
