<svg 
 xmlns="http://www.w3.org/2000/svg"
 xmlns:xlink="http://www.w3.org/1999/xlink"
 width="10px" height="9px">
<path
 d="M5.000,1.999 C5.000,1.999 4.086,0.308 3.000,-0.000 C2.830,-0.007 2.419,-0.081 1.717,0.235 C1.381,0.387 1.078,0.607 0.824,0.878 C0.569,1.149 0.363,1.473 0.221,1.832 C0.078,2.190 -0.000,2.585 -0.000,2.999 C-0.000,3.413 0.078,3.808 0.221,4.167 C0.363,4.526 0.569,4.849 0.824,5.121 C1.078,5.392 4.663,8.847 5.000,8.999 L5.000,8.999 L5.000,8.999 C5.336,8.847 8.921,5.392 9.176,5.121 C9.430,4.849 9.636,4.526 9.778,4.167 C9.921,3.808 10.000,3.413 10.000,2.999 C10.000,2.585 9.921,2.190 9.778,1.832 C9.636,1.473 9.430,1.149 9.176,0.878 C8.921,0.607 8.336,0.152 8.000,-0.000 C5.771,-0.071 5.000,1.999 5.000,1.999 Z"/>
</svg>
