<svg
 xmlns="http://www.w3.org/2000/svg"
 xmlns:xlink="http://www.w3.org/1999/xlink"
 width="25px" height="25px">
<path
 d="M24.597,24.998 L19.587,24.998 C19.364,24.998 19.184,24.817 19.184,24.595 L19.184,16.738 C19.184,14.539 19.022,12.856 16.981,12.856 C15.107,12.856 14.377,13.906 14.377,16.600 L14.377,24.595 C14.377,24.817 14.196,24.998 13.973,24.998 L8.966,24.998 C8.743,24.998 8.562,24.817 8.562,24.595 L8.562,8.435 C8.562,8.213 8.743,8.032 8.966,8.032 L13.772,8.032 C13.995,8.032 14.175,8.213 14.175,8.435 L14.175,9.485 C15.079,8.498 16.569,7.630 18.585,7.630 C24.238,7.630 25.000,11.725 25.000,15.731 L25.000,24.595 C25.000,24.817 24.819,24.998 24.597,24.998 ZM3.311,6.631 C1.485,6.631 -0.000,5.143 -0.000,3.314 C-0.000,1.486 1.485,-0.002 3.311,-0.002 C5.136,-0.002 6.621,1.486 6.621,3.314 C6.621,5.143 5.136,6.631 3.311,6.631 ZM0.800,8.032 L5.819,8.032 C6.042,8.032 6.222,8.213 6.222,8.435 L6.222,24.595 C6.222,24.817 6.042,24.998 5.819,24.998 L0.800,24.998 C0.578,24.998 0.397,24.817 0.397,24.595 L0.397,8.435 C0.397,8.213 0.578,8.032 0.800,8.032 Z"/>
</svg>
