<svg
 xmlns="http://www.w3.org/2000/svg"
 xmlns:xlink="http://www.w3.org/1999/xlink"
 width="63px" height="101px">
<path fill-rule="evenodd"  fill="rgb(40, 161, 81)"
 d="M31.500,92.045 C42.921,92.045 52.214,82.612 52.214,71.016 C52.214,59.420 42.921,49.987 31.500,49.987 C20.078,49.987 10.786,59.420 10.786,71.016 C10.786,82.611 20.078,92.045 31.500,92.045 ZM31.500,52.711 C41.442,52.711 49.530,60.922 49.530,71.016 C49.530,81.109 41.442,89.321 31.500,89.321 C21.557,89.321 13.469,81.109 13.469,71.016 C13.469,60.922 21.557,52.711 31.500,52.711 ZM23.701,71.016 C23.701,75.382 27.199,78.934 31.500,78.934 C35.800,78.934 39.299,75.382 39.299,71.016 C39.299,66.650 35.800,63.098 31.500,63.098 C27.199,63.098 23.701,66.650 23.701,71.016 ZM36.616,71.016 C36.616,73.880 34.321,76.210 31.500,76.210 C28.679,76.210 26.384,73.880 26.384,71.016 C26.384,68.152 28.679,65.822 31.500,65.822 C34.320,65.822 36.616,68.152 36.616,71.016 ZM31.500,66.376 C34.020,66.376 36.070,68.457 36.070,71.016 C36.070,71.768 35.469,72.378 34.728,72.378 C33.987,72.378 33.387,71.768 33.387,71.016 C33.387,69.960 32.540,69.100 31.500,69.100 C30.759,69.100 30.158,68.490 30.158,67.738 C30.158,66.986 30.759,66.376 31.500,66.376 ZM31.500,28.167 C28.386,28.167 25.853,30.738 25.853,33.899 C25.853,37.060 28.386,39.632 31.500,39.632 C34.613,39.632 37.146,37.060 37.146,33.899 C37.146,30.738 34.613,28.167 31.500,28.167 ZM31.500,36.908 C29.866,36.908 28.536,35.558 28.536,33.899 C28.536,32.240 29.866,30.891 31.500,30.891 C33.133,30.891 34.463,32.240 34.463,33.899 C34.463,35.558 33.133,36.908 31.500,36.908 ZM15.091,71.016 C15.091,61.830 22.452,54.357 31.500,54.357 C36.860,54.357 41.894,57.025 44.966,61.494 C45.390,62.111 45.241,62.960 44.633,63.391 C44.025,63.821 43.189,63.670 42.765,63.053 C40.196,59.313 35.984,57.081 31.500,57.081 C23.931,57.081 17.774,63.332 17.774,71.016 C17.774,78.700 23.931,84.951 31.500,84.951 C39.068,84.951 45.225,78.700 45.225,71.016 C45.225,70.264 45.826,69.654 46.567,69.654 C47.308,69.654 47.909,70.264 47.909,71.016 C47.909,80.201 40.548,87.674 31.500,87.674 C22.452,87.674 15.091,80.201 15.091,71.016 ZM31.500,48.373 C39.361,48.373 45.756,41.880 45.756,33.899 C45.756,25.918 39.361,19.426 31.500,19.426 C23.639,19.426 17.243,25.918 17.243,33.899 C17.243,41.880 23.639,48.373 31.500,48.373 ZM31.500,22.150 C37.881,22.150 43.073,27.421 43.073,33.899 C43.073,40.378 37.881,45.649 31.500,45.649 C25.118,45.649 19.926,40.378 19.926,33.899 C19.926,27.421 25.118,22.150 31.500,22.150 ZM21.220,33.899 C21.220,28.145 25.831,23.463 31.500,23.463 C34.858,23.463 38.012,25.134 39.936,27.934 C40.351,28.539 40.205,29.372 39.609,29.794 C39.013,30.217 38.193,30.068 37.777,29.463 C36.345,27.379 33.998,26.135 31.500,26.135 C27.283,26.135 23.852,29.618 23.852,33.899 C23.852,38.180 27.283,41.663 31.500,41.663 C35.716,41.663 39.147,38.180 39.147,33.899 C39.147,33.161 39.736,32.563 40.463,32.563 C41.190,32.563 41.779,33.161 41.779,33.899 C41.779,39.654 37.168,44.336 31.500,44.336 C25.831,44.336 21.220,39.654 21.220,33.899 ZM62.987,12.251 C62.985,12.236 62.983,12.223 62.981,12.209 C62.975,12.165 62.966,12.122 62.955,12.080 C62.952,12.068 62.949,12.056 62.946,12.044 C62.916,11.936 62.873,11.833 62.819,11.738 C62.816,11.733 62.814,11.728 62.811,11.723 L56.507,0.911 C56.266,0.497 55.827,0.243 55.353,0.243 L7.646,0.243 C7.172,0.243 6.733,0.497 6.492,0.911 L0.188,11.723 C0.185,11.728 0.184,11.732 0.181,11.737 C0.127,11.833 0.084,11.935 0.053,12.044 C0.050,12.055 0.047,12.068 0.044,12.079 C0.033,12.122 0.025,12.165 0.018,12.209 C0.016,12.223 0.014,12.236 0.012,12.250 C0.005,12.305 0.001,12.360 0.001,12.416 L0.001,12.416 L0.001,12.416 L0.001,98.895 C0.001,99.647 0.602,100.257 1.343,100.257 L61.657,100.257 C62.398,100.257 62.999,99.647 62.999,98.895 L62.999,12.417 C62.998,12.361 62.994,12.305 62.987,12.251 ZM2.684,97.533 L2.684,13.779 L45.491,13.779 C46.232,13.779 46.832,13.169 46.832,12.417 C46.832,11.665 46.232,11.055 45.491,11.055 L3.696,11.055 L8.411,2.967 L54.588,2.967 L59.304,11.055 L54.101,11.055 C53.360,11.055 52.759,11.665 52.759,12.417 C52.759,13.169 53.360,13.779 54.101,13.779 L60.315,13.779 L60.315,97.533 L2.684,97.533 L2.684,97.533 ZM56.738,15.676 L6.262,15.676 C5.521,15.676 4.920,16.286 4.920,17.038 L4.920,94.636 C4.920,95.388 5.521,95.998 6.262,95.998 L56.738,95.998 C57.479,95.998 58.080,95.388 58.080,94.636 L58.080,17.038 C58.080,16.286 57.479,15.676 56.738,15.676 ZM55.397,93.274 L7.604,93.274 L7.604,18.400 L55.397,18.400 L55.397,93.274 Z"/>
</svg>
