<svg
 xmlns="http://www.w3.org/2000/svg"
 xmlns:xlink="http://www.w3.org/1999/xlink"
 width="77px" height="101px">
<path fill-rule="evenodd"  fill="rgb(40, 161, 81)"
 d="M75.623,26.352 L50.485,26.352 L50.485,25.491 C53.438,24.871 55.690,22.302 55.785,19.214 C55.787,19.184 55.788,19.153 55.788,19.122 L55.788,19.011 C55.788,18.991 55.788,18.972 55.787,18.952 C55.695,12.877 50.661,7.952 44.520,7.952 L42.623,7.952 C39.546,3.068 34.124,0.066 28.283,0.066 C21.225,0.066 14.930,4.153 12.101,10.524 C8.588,12.357 5.617,15.077 3.489,18.414 C1.205,21.994 -0.001,26.135 -0.001,30.389 L-0.001,75.034 C-0.001,78.687 2.996,81.658 6.680,81.658 C10.364,81.658 13.362,78.686 13.362,75.034 L13.362,17.591 C13.362,15.840 13.665,14.133 14.265,12.510 C16.890,11.298 19.702,10.685 22.632,10.685 L41.003,10.685 C41.935,12.584 42.425,14.688 42.425,16.818 L42.425,19.011 C42.425,22.195 44.703,24.861 47.728,25.492 L47.728,26.352 L22.590,26.352 C21.829,26.352 21.212,26.964 21.212,27.719 L21.212,98.692 C21.212,99.447 21.829,100.059 22.590,100.059 L75.623,100.059 C76.384,100.059 77.001,99.447 77.001,98.692 L77.001,27.719 C77.001,26.964 76.384,26.352 75.623,26.352 ZM10.605,17.591 L10.605,75.034 C10.605,77.180 8.844,78.925 6.680,78.925 L6.680,78.925 C4.516,78.925 2.755,77.180 2.755,75.034 L2.755,30.389 C2.755,23.999 5.800,18.161 10.881,14.487 C10.697,15.504 10.605,16.541 10.605,17.591 ZM22.632,7.952 C20.432,7.952 18.290,8.256 16.227,8.860 C18.992,5.095 23.424,2.799 28.283,2.799 C32.565,2.799 36.578,4.726 39.239,7.952 L22.632,7.952 ZM45.181,19.011 L45.181,16.818 C45.181,14.713 44.781,12.628 44.011,10.685 L44.520,10.685 C49.180,10.685 52.995,14.439 53.031,19.056 C53.012,20.698 51.954,22.097 50.484,22.649 L50.484,22.492 C50.484,21.737 49.867,21.126 49.106,21.126 C48.345,21.126 47.728,21.737 47.728,22.492 L47.728,22.650 C46.243,22.095 45.181,20.676 45.181,19.011 ZM23.968,97.326 L23.968,55.830 L65.016,55.830 C65.777,55.830 66.394,55.218 66.394,54.463 C66.394,53.708 65.777,53.097 65.016,53.097 L23.968,53.097 L23.968,29.085 L47.728,29.085 L47.728,29.769 C45.889,30.350 44.553,32.059 44.553,34.072 C44.553,36.561 46.596,38.586 49.106,38.586 C51.617,38.586 53.660,36.561 53.660,34.072 C53.660,32.059 52.324,30.350 50.485,29.769 L50.485,29.085 L74.245,29.085 L74.245,53.097 L72.971,53.097 C72.210,53.097 71.593,53.708 71.593,54.463 C71.593,55.218 72.210,55.830 72.971,55.830 L74.245,55.830 L74.245,97.326 L23.968,97.326 ZM47.804,32.848 C47.990,33.384 48.502,33.770 49.106,33.770 C49.711,33.770 50.223,33.384 50.409,32.848 C50.714,33.168 50.903,33.598 50.903,34.072 C50.903,35.054 50.097,35.853 49.106,35.853 C48.116,35.853 47.309,35.054 47.309,34.072 C47.309,33.598 47.499,33.168 47.804,32.848 ZM64.731,60.903 L40.521,60.903 C39.759,60.903 39.142,61.514 39.142,62.269 L39.142,79.472 C39.038,79.467 38.933,79.465 38.828,79.465 C34.963,79.465 31.818,82.582 31.818,86.414 C31.818,90.245 34.963,93.363 38.828,93.363 C42.693,93.363 45.837,90.245 45.837,86.414 L45.837,70.335 L59.415,70.335 L59.415,79.472 C59.310,79.467 59.205,79.465 59.100,79.465 C55.235,79.465 52.091,82.582 52.091,86.414 C52.091,90.245 55.235,93.363 59.100,93.363 C62.965,93.363 66.110,90.245 66.110,86.414 L66.110,62.269 C66.110,61.515 65.493,60.903 64.731,60.903 ZM63.353,86.414 C63.353,88.739 61.445,90.630 59.100,90.630 C56.755,90.630 54.847,88.739 54.847,86.414 C54.847,84.089 56.755,82.197 59.100,82.197 C59.517,82.197 59.929,82.257 60.324,82.374 C60.597,82.472 60.901,82.485 61.193,82.397 C61.774,82.222 62.171,81.691 62.171,81.090 L62.171,68.968 C62.171,68.213 61.554,67.602 60.793,67.602 L44.459,67.602 C43.698,67.602 43.081,68.213 43.081,68.968 L43.081,86.414 C43.081,88.739 41.173,90.630 38.828,90.630 C36.483,90.630 34.575,88.739 34.575,86.414 C34.575,84.089 36.483,82.197 38.828,82.197 C39.251,82.197 39.669,82.259 40.069,82.380 C40.425,82.502 40.820,82.476 41.160,82.300 C41.635,82.054 41.921,81.559 41.899,81.032 L41.899,63.636 L63.353,63.636 L63.353,86.414 ZM45.128,41.693 L40.720,50.434 C40.486,50.896 40.009,51.189 39.487,51.189 C38.965,51.189 38.488,50.896 38.254,50.434 L33.845,41.693 C33.505,41.018 33.781,40.197 34.462,39.860 C35.143,39.523 35.971,39.796 36.311,40.471 L39.487,46.767 L42.663,40.471 C43.003,39.796 43.831,39.522 44.512,39.860 C45.193,40.197 45.469,41.018 45.128,41.693 ZM44.870,48.858 C45.126,49.111 45.273,49.462 45.273,49.823 C45.273,50.182 45.126,50.533 44.870,50.789 C44.613,51.044 44.258,51.189 43.895,51.189 C43.533,51.189 43.178,51.044 42.921,50.789 C42.665,50.534 42.518,50.182 42.518,49.823 C42.518,49.462 42.665,49.111 42.921,48.858 C43.178,48.602 43.533,48.457 43.895,48.457 C44.258,48.457 44.613,48.602 44.870,48.858 ZM52.953,48.858 C53.208,49.111 53.355,49.462 53.355,49.823 C53.355,50.182 53.208,50.533 52.953,50.789 C52.695,51.044 52.341,51.189 51.977,51.189 C51.615,51.189 51.260,51.044 51.003,50.789 C50.746,50.534 50.599,50.182 50.599,49.823 C50.599,49.462 50.746,49.111 51.003,48.858 C51.258,48.602 51.615,48.457 51.977,48.457 C52.341,48.457 52.696,48.602 52.953,48.858 ZM61.904,48.858 C62.161,49.111 62.308,49.462 62.308,49.823 C62.308,50.182 62.161,50.533 61.904,50.789 C61.649,51.044 61.292,51.189 60.930,51.189 C60.568,51.189 60.212,51.044 59.956,50.789 C59.699,50.535 59.552,50.182 59.552,49.823 C59.552,49.462 59.699,49.111 59.956,48.858 C60.212,48.602 60.566,48.457 60.930,48.457 C61.294,48.457 61.649,48.602 61.904,48.858 ZM50.485,41.082 L50.485,49.823 C50.485,50.578 49.868,51.189 49.106,51.189 C48.345,51.189 47.728,50.578 47.728,49.823 L47.728,41.082 C47.728,40.327 48.345,39.716 49.106,39.716 C49.868,39.716 50.485,40.327 50.485,41.082 ZM60.930,39.716 L56.522,39.716 C55.760,39.716 55.143,40.327 55.143,41.082 L55.143,49.823 C55.143,50.578 55.760,51.189 56.522,51.189 C57.283,51.189 57.900,50.578 57.900,49.823 L57.900,46.819 L60.930,46.819 C62.906,46.819 64.513,45.226 64.513,43.267 C64.513,41.309 62.906,39.716 60.930,39.716 ZM60.930,44.086 L57.900,44.086 L57.900,42.448 L60.930,42.448 C61.386,42.448 61.756,42.816 61.756,43.267 C61.756,43.719 61.386,44.086 60.930,44.086 Z"/>
</svg>
