<svg
 xmlns="http://www.w3.org/2000/svg"
 xmlns:xlink="http://www.w3.org/1999/xlink"
 width="9px" height="14px">
<path
 d="M8.787,3.484 C8.741,3.298 8.646,3.099 8.576,2.924 C7.741,0.771 5.914,-0.000 4.439,-0.000 C2.465,-0.000 0.290,1.419 -0.000,4.343 L-0.000,4.940 C-0.000,4.965 0.008,5.189 0.019,5.301 C0.182,6.695 1.208,8.176 1.975,9.570 C2.799,11.063 3.655,12.532 4.503,14.000 C5.025,13.042 5.546,12.071 6.057,11.138 C6.196,10.864 6.358,10.590 6.497,10.329 C6.590,10.155 6.767,9.980 6.848,9.819 C7.673,8.201 9.000,6.571 9.000,4.965 L9.000,4.306 C9.000,4.132 8.799,3.522 8.787,3.484 ZM4.475,6.484 C3.895,6.484 3.260,6.173 2.946,5.314 C2.899,5.177 2.903,4.903 2.903,4.878 L2.903,4.492 C2.903,3.397 3.771,2.899 4.525,2.899 C5.454,2.899 6.173,3.696 6.173,4.692 C6.173,5.687 5.404,6.484 4.475,6.484 Z"/>
</svg>
