<svg
 xmlns="http://www.w3.org/2000/svg"
 xmlns:xlink="http://www.w3.org/1999/xlink"
 width="15px" height="16px">
<path
 d="M7.501,0.864 C11.637,0.864 15.002,3.896 15.002,7.624 C15.002,8.927 14.590,10.190 13.810,11.281 C13.957,12.918 14.354,14.133 14.929,14.709 C15.005,14.785 15.024,14.901 14.976,14.997 C14.933,15.083 14.846,15.136 14.752,15.136 C14.740,15.136 14.729,15.135 14.717,15.133 C14.616,15.119 12.263,14.780 10.562,13.797 C9.596,14.187 8.567,14.385 7.501,14.385 C3.365,14.385 -0.001,11.352 -0.001,7.624 C-0.001,3.896 3.365,0.864 7.501,0.864 ZM11.001,8.626 C11.553,8.626 12.001,8.177 12.001,7.624 C12.001,7.072 11.553,6.623 11.001,6.623 C10.450,6.623 10.001,7.072 10.001,7.624 C10.001,8.177 10.450,8.626 11.001,8.626 ZM7.501,8.626 C8.052,8.626 8.501,8.177 8.501,7.624 C8.501,7.072 8.052,6.623 7.501,6.623 C6.949,6.623 6.500,7.072 6.500,7.624 C6.500,8.177 6.949,8.626 7.501,8.626 ZM4.000,8.626 C4.552,8.626 5.000,8.177 5.000,7.624 C5.000,7.072 4.552,6.623 4.000,6.623 C3.449,6.623 3.000,7.072 3.000,7.624 C3.000,8.177 3.449,8.626 4.000,8.626 Z"/>
</svg>
