<svg
 xmlns="http://www.w3.org/2000/svg"
 xmlns:xlink="http://www.w3.org/1999/xlink"
 width="12px" height="14px">
<path fill-rule="evenodd"  fill="rgb(130, 130, 130)"
 d="M3.634,2.452 L3.634,3.863 L3.634,5.338 L3.634,9.489 C3.271,9.263 2.846,9.130 2.389,9.130 C1.070,9.130 0.000,10.220 0.000,11.564 C0.000,12.910 1.070,14.000 2.389,14.000 C3.708,14.000 4.777,12.910 4.778,11.565 L4.778,11.565 L4.778,5.003 L10.856,3.222 L10.856,7.388 C10.493,7.161 10.068,7.028 9.611,7.028 C8.292,7.028 7.222,8.118 7.222,9.462 C7.222,10.807 8.292,11.898 9.611,11.898 C10.854,11.898 11.875,10.929 11.988,9.691 L12.000,9.691 L12.000,2.886 L12.000,1.841 L12.000,-0.000 L3.634,2.452 Z"/>
</svg>
