<svg xmlns="http://www.w3.org/2000/svg" width="165" height="36">
  <path class="logo-n" fill="#83ee76" d="M33.2 15.8v11.9h-6V6.4h6v2.4C35 6.9 37 6 39.3 6s4.2.8 5.7 2.4c1.5 1.6 2.3 3.7 2.3 6.3v12.9h-6v-12c0-3.3-1.2-4.9-3.6-4.9-1.2 0-2.2.4-3.1 1.3-1 .8-1.4 2.1-1.4 3.8z"/>
  <path class="logo-stage" fill="#fff" d="M72.1 21c0 2.1-.8 3.8-2.3 5-1.6 1.3-3.5 1.9-5.9 1.9-1.6 0-3.3-.3-5-.8-1.7-.6-3.3-1.4-4.7-2.5l2.6-3.7c2.2 1.7 4.6 2.6 7.2 2.6.8 0 1.4-.2 1.8-.5.5-.3.7-.7.7-1.2s-.3-1-.9-1.4c-.6-.4-1.5-.8-2.7-1.2l-2.7-.9c-.6-.3-1.3-.6-2.1-1.1-1.6-1-2.4-2.5-2.4-4.4s.8-3.6 2.4-4.8c1.4-1.4 3.5-2 6-2s5.1.8 7.6 2.5l-2.2 4c-1.9-1.3-3.7-1.9-5.6-1.9s-2.8.5-2.8 1.5c0 .6.3 1 .9 1.3.6.3 1.6.7 2.9 1.1 1.4.4 2.3.7 2.9 1 .6.2 1.3.6 2.1 1 1.5.9 2.2 2.4 2.2 4.5zm11.6-10.4v9.5c0 .8.2 1.5.6 1.9.4.5.9.7 1.5.7 1.1 0 2.1-.5 2.8-1.5l2.2 4.1c-1.9 1.7-3.8 2.5-5.9 2.5-2.1 0-3.8-.7-5.2-2-1.4-1.3-2.1-3.2-2.1-5.5v-9.8h-2.5V6.4h2.5V0h6v6.4h5.2v4.3h-5.1zm28.7 17h-5.6V25c-1.5 1.9-3.5 2.9-5.7 2.9-2.3 0-4.2-.7-5.7-2s-2.3-3-2.3-5.2.8-3.8 2.4-4.9c1.6-1.1 3.8-1.6 6.6-1.6h4.5v-.1c0-2.3-1.2-3.4-3.6-3.4-1 0-2.1.2-3.3.6-1.2.4-2.1.9-2.9 1.5L93.9 9c2.8-2 6.1-3 9.7-3 2.6 0 4.7.6 6.4 1.9s2.5 3.3 2.5 6.1v13.6zm-6-8.1v-1h-3.8c-2.4 0-3.6.7-3.6 2.2 0 .8.3 1.4.9 1.8.6.4 1.4.6 2.5.6s2-.3 2.8-1c.8-.6 1.2-1.5 1.2-2.6zm27.4 4.5c-1.9 2.1-4.2 3.1-7.1 3.1-2.8 0-5.2-.9-7.1-2.8-1.9-1.9-2.9-4.4-2.9-7.5 0-3.1 1-5.7 3-7.7s4.3-3 6.8-3c2.6 0 4.7 1 6.4 3.1V6.3h6v18.5c0 1.9-.3 3.6-1 5.1-.7 1.5-1.6 2.6-2.7 3.5-2.2 1.7-4.8 2.6-7.8 2.6-1.6 0-3.2-.3-4.9-.8-1.7-.5-3.1-1.2-4.4-2.2l2.3-4.5c2 1.5 4.1 2.2 6.3 2.2s3.9-.5 5.2-1.6c1.3-1 1.9-2.7 1.9-5.1zm-.8-7.5c0-1.7-.5-3-1.4-4-1-1-2.1-1.5-3.6-1.5-1.4 0-2.6.5-3.7 1.5-1 1-1.5 2.3-1.5 4 0 1.7.5 3 1.5 4.1s2.2 1.6 3.7 1.6c1.4 0 2.6-.5 3.6-1.5.9-1.1 1.4-2.5 1.4-4.2zm30.2 8c-2.4 2.3-5.3 3.4-8.5 3.4-3.3 0-6-1-8.1-3-2.1-2-3.2-4.7-3.2-8s1.1-6 3.3-8c2.2-2 4.7-3 7.7-3s5.5.9 7.5 2.6c2.1 1.8 3.1 4.2 3.1 7.3V19h-15.7c.2 1.2.8 2.1 1.8 2.8 1 .7 2.2 1.1 3.5 1.1 2.1 0 3.8-.7 5.2-2.1l3.4 3.7zm-5.7-12.6c-.8-.7-1.8-1-3-1s-2.3.4-3.3 1.1c-1 .7-1.6 1.7-1.7 2.9h9.4c-.1-1.3-.6-2.3-1.4-3z"/>
  <path  class="logo-o" fill="#83ee76" d="M19.5 9.2c-1-.9-2-1.7-3.2-2.2v7.6c.3.7.4 1.5.4 2.4 0 1.7-.5 3.2-1.5 4.2s-2.3 1.6-3.8 1.6-2.8-.5-3.8-1.6S6 18.7 6 17c0-.9.1-1.7.4-2.4V7c-1.1.5-2.2 1.3-3.2 2.2C1.1 11.3 0 13.9 0 17s1.1 5.7 3.2 7.8c2.2 2.1 4.9 3.2 8.1 3.2 3.3 0 6-1.1 8.1-3.2 2.2-2.1 3.2-4.7 3.2-7.8s-.9-5.7-3.1-7.8z"/>
  <path  class="logo-i" fill="#83ee76" d="M9.3 3.9h4.1v9.6H9.3z"/>
</svg>
