<svg
 xmlns="http://www.w3.org/2000/svg"
 xmlns:xlink="http://www.w3.org/1999/xlink"
 width="17px" height="14px">
<path
 d="M15.656,13.133 C15.239,13.524 14.736,13.719 14.148,13.719 L2.415,13.719 C1.826,13.719 1.323,13.524 0.907,13.133 C0.490,12.743 0.282,12.271 0.282,11.719 L0.282,4.718 C0.282,4.166 0.490,3.695 0.907,3.304 C1.323,2.914 1.826,2.718 2.415,2.718 L4.281,2.718 L4.706,1.656 C4.812,1.401 5.005,1.181 5.286,0.996 C5.566,0.811 5.854,0.718 6.148,0.718 L10.414,0.718 C10.709,0.718 10.997,0.811 11.277,0.996 C11.558,1.181 11.751,1.401 11.856,1.656 L12.281,2.718 L14.148,2.718 C14.737,2.718 15.239,2.914 15.656,3.304 C16.072,3.695 16.281,4.166 16.281,4.718 L16.281,11.719 C16.281,12.271 16.072,12.743 15.656,13.133 ZM10.919,5.746 C10.188,5.061 9.309,4.719 8.281,4.719 C7.254,4.719 6.374,5.061 5.644,5.746 C4.913,6.431 4.548,7.255 4.548,8.219 C4.548,9.182 4.913,10.007 5.644,10.692 C6.374,11.377 7.254,11.719 8.281,11.719 C9.309,11.719 10.188,11.377 10.919,10.692 C11.649,10.007 12.014,9.182 12.014,8.219 C12.014,7.255 11.649,6.431 10.919,5.746 ZM8.281,10.469 C7.620,10.469 7.055,10.249 6.586,9.809 C6.116,9.369 5.881,8.839 5.881,8.219 C5.881,7.599 6.116,7.069 6.586,6.629 C7.055,6.189 7.620,5.969 8.281,5.969 C8.942,5.969 9.508,6.189 9.977,6.629 C10.446,7.069 10.681,7.599 10.681,8.219 C10.681,8.839 10.446,9.369 9.977,9.809 C9.508,10.249 8.942,10.469 8.281,10.469 Z"/>
</svg>
