<svg 
 xmlns="http://www.w3.org/2000/svg"
 xmlns:xlink="http://www.w3.org/1999/xlink"
 width="36px" height="36px">
<path fill-rule=""  opacity="0.8" fill=""
 d="M18.000,-0.000 C8.074,-0.000 -0.000,8.074 -0.000,17.999 C-0.000,27.925 8.074,35.999 18.000,35.999 C27.925,35.999 36.000,27.925 36.000,17.999 C36.000,8.074 27.925,-0.000 18.000,-0.000 ZM27.338,18.495 L14.138,27.495 C14.036,27.564 13.918,27.599 13.800,27.599 C13.704,27.599 13.607,27.577 13.519,27.530 C13.323,27.426 13.200,27.222 13.200,27.000 L13.200,8.999 C13.200,8.777 13.323,8.573 13.519,8.469 C13.716,8.365 13.954,8.379 14.138,8.504 L27.338,17.504 C27.501,17.615 27.600,17.801 27.600,17.999 C27.600,18.198 27.501,18.384 27.338,18.495 Z"/>
</svg>
