<svg
 xmlns="http://www.w3.org/2000/svg"
 xmlns:xlink="http://www.w3.org/1999/xlink"
 width="20px" height="18px">
<path
 d="M17.500,14.400 L16.250,14.400 L16.250,12.000 L16.250,10.800 L3.750,10.800 L3.750,12.000 L3.750,14.400 L2.500,14.400 C1.250,14.400 -0.000,13.200 -0.000,12.000 L-0.000,6.000 C-0.000,4.800 1.250,3.600 2.500,3.600 L3.750,3.600 L3.750,6.000 L3.750,7.200 L16.250,7.200 L16.250,6.000 L16.250,3.600 L17.500,3.600 C18.750,3.600 20.000,4.800 20.000,6.000 L20.000,12.000 C20.000,13.200 18.750,14.400 17.500,14.400 ZM5.000,3.600 L5.000,-0.000 L15.000,-0.000 L15.000,3.600 L15.000,6.000 L5.000,6.000 L5.000,3.600 ZM15.000,14.400 L15.000,18.000 L5.000,18.000 L5.000,14.400 L5.000,12.000 L15.000,12.000 L15.000,14.400 ZM13.750,13.200 L6.250,13.200 L6.250,14.400 L13.750,14.400 L13.750,13.200 ZM13.750,15.600 L6.250,15.600 L6.250,16.800 L13.750,16.800 L13.750,15.600 Z"/>
</svg>
