<svg
 xmlns="http://www.w3.org/2000/svg"
 xmlns:xlink="http://www.w3.org/1999/xlink"
 width="68px" height="55px">
<path fill-rule="evenodd"  fill="rgb(224, 224, 224)"
 d="M56.720,24.918 C64.904,27.195 69.698,35.666 67.410,43.804 C65.556,50.397 59.456,55.003 52.578,55.003 C51.177,55.003 49.778,54.810 48.419,54.432 C43.022,52.932 38.965,48.477 36.993,41.889 C35.214,35.946 35.258,28.753 37.113,22.155 C40.725,9.316 49.631,-0.003 58.291,-0.003 C58.985,-0.003 59.680,0.056 60.356,0.175 C60.739,0.240 61.076,0.466 61.283,0.792 C61.490,1.119 61.548,1.517 61.444,1.890 L59.661,8.229 C59.489,8.841 58.906,9.255 58.278,9.227 L58.138,9.224 C54.927,9.224 49.058,14.009 46.067,24.644 C45.948,25.069 45.836,25.501 45.728,25.948 C49.088,24.295 53.093,23.913 56.720,24.918 ZM16.890,55.003 C15.489,55.003 14.090,54.810 12.731,54.432 C7.335,52.932 3.277,48.477 1.306,41.889 C-0.473,35.946 -0.429,28.753 1.426,22.156 C5.036,9.316 13.943,-0.004 22.601,-0.004 C23.296,-0.004 23.991,0.056 24.668,0.175 C25.051,0.242 25.387,0.466 25.595,0.792 C25.802,1.119 25.860,1.517 25.756,1.890 L23.973,8.229 C23.802,8.841 23.208,9.255 22.591,9.227 L22.449,9.224 C19.238,9.224 13.370,14.009 10.379,24.644 C10.261,25.066 10.149,25.498 10.041,25.948 C13.399,24.295 17.405,23.913 21.032,24.918 C29.215,27.195 34.010,35.666 31.722,43.804 C29.868,50.397 23.769,55.003 16.890,55.003 Z"/>
</svg>
