<svg
 xmlns="http://www.w3.org/2000/svg"
 xmlns:xlink="http://www.w3.org/1999/xlink"
 width="18px" height="18px">
<path
 d="M17.182,18.000 L14.727,18.000 L14.727,17.182 L14.727,16.364 L14.727,15.545 L14.727,12.273 C14.727,11.821 14.361,11.454 13.909,11.454 L4.091,11.454 C3.639,11.454 3.273,11.821 3.273,12.273 L3.273,15.545 L3.273,16.364 L3.273,17.182 L3.273,18.000 L0.818,18.000 C0.366,18.000 -0.000,17.634 -0.000,17.182 L-0.000,0.818 C-0.000,0.366 0.366,-0.000 0.818,-0.000 L3.273,-0.000 L3.273,0.818 L3.273,1.636 L3.273,6.818 C3.273,7.270 3.639,7.636 4.091,7.636 L11.727,7.636 C12.179,7.636 12.545,7.270 12.545,6.818 L12.545,1.636 L12.545,0.818 L12.545,-0.000 L13.894,-0.000 C14.151,-0.000 14.394,0.121 14.548,0.327 L17.836,4.705 C17.942,4.847 18.000,5.020 18.000,5.197 L18.000,17.182 C18.000,17.634 17.634,18.000 17.182,18.000 ZM4.909,1.636 L4.909,0.818 L4.909,-0.000 L10.909,-0.000 L10.909,0.818 L10.909,1.636 L10.909,6.000 L4.909,6.000 L4.909,1.636 ZM13.091,14.727 L4.909,14.727 L4.909,13.091 L13.091,13.091 L13.091,14.727 ZM13.091,17.182 L13.091,18.000 L4.909,18.000 L4.909,17.182 L4.909,16.364 L13.091,16.364 L13.091,17.182 Z"/>
</svg>
