<svg
 xmlns="http://www.w3.org/2000/svg"
 xmlns:xlink="http://www.w3.org/1999/xlink"
 width="13px" height="14px">
<path
 d="M12.814,12.751 L9.606,9.286 C10.431,8.268 10.883,6.986 10.883,5.652 C10.883,2.536 8.441,-0.000 5.440,-0.000 C2.440,-0.000 -0.002,2.536 -0.002,5.652 C-0.002,8.769 2.440,11.305 5.440,11.305 C6.567,11.305 7.641,10.952 8.558,10.282 L11.791,13.773 C11.926,13.919 12.108,13.999 12.302,13.999 C12.487,13.999 12.661,13.927 12.794,13.794 C13.076,13.512 13.085,13.045 12.814,12.751 ZM5.440,1.474 C7.659,1.474 9.463,3.348 9.463,5.652 C9.463,7.956 7.659,9.830 5.440,9.830 C3.223,9.830 1.418,7.956 1.418,5.652 C1.418,3.348 3.223,1.474 5.440,1.474 Z"/>
</svg>
