<svg
 xmlns="http://www.w3.org/2000/svg"
 xmlns:xlink="http://www.w3.org/1999/xlink"
 width="21px" height="12px">
<path
 d="M10.084,-0.000 C6.266,-0.000 2.804,2.104 0.250,5.522 C0.041,5.802 0.041,6.194 0.250,6.474 C2.804,9.896 6.266,12.000 10.084,12.000 C13.901,12.000 17.363,9.896 19.918,6.478 C20.126,6.198 20.126,5.806 19.918,5.526 C17.363,2.104 13.901,-0.000 10.084,-0.000 ZM10.358,10.225 C7.824,10.386 5.731,8.281 5.890,5.724 C6.021,3.616 7.717,1.907 9.810,1.775 C12.344,1.614 14.437,3.719 14.277,6.276 C14.142,8.380 12.446,10.089 10.358,10.225 ZM10.231,8.273 C8.866,8.360 7.738,7.227 7.828,5.852 C7.897,4.715 8.813,3.797 9.941,3.723 C11.306,3.636 12.434,4.769 12.344,6.144 C12.271,7.285 11.355,8.203 10.231,8.273 Z"/>
</svg>
