<svg
 xmlns="http://www.w3.org/2000/svg"
 xmlns:xlink="http://www.w3.org/1999/xlink"
 width="18px" height="22px">
<path fill-rule="evenodd"  fill="rgb(131, 238, 118)"
 d="M9.000,21.207 C4.014,21.112 0.000,17.041 0.000,12.033 C0.000,8.313 2.214,5.110 5.395,3.670 C5.395,3.670 6.479,3.182 6.479,4.322 C6.479,5.461 5.405,6.225 5.392,6.223 C3.496,7.460 2.243,9.600 2.243,12.033 C2.243,15.803 5.252,18.870 9.000,18.964 C12.747,18.870 15.756,15.803 15.756,12.033 C15.756,9.600 14.504,7.460 12.608,6.223 C12.594,6.225 11.521,5.461 11.521,4.322 C11.521,3.182 12.604,3.670 12.604,3.670 C15.786,5.110 17.999,8.313 17.999,12.033 C17.999,17.041 13.986,21.112 9.000,21.207 ZM9.063,11.884 C8.055,11.884 7.740,11.146 7.740,10.857 L7.740,6.338 L7.740,1.819 C7.740,1.531 8.055,0.792 9.063,0.792 C10.071,0.792 10.260,1.531 10.260,1.819 L10.260,6.338 L10.260,10.857 C10.260,11.145 10.071,11.884 9.063,11.884 Z"/>
</svg>
