<svg
 xmlns="http://www.w3.org/2000/svg"
 xmlns:xlink="http://www.w3.org/1999/xlink"
 width="16px" height="16px">
<path fill-rule=""  fill=""
 d="M15.647,6.622 C15.820,6.461 15.885,6.206 15.812,5.975 C15.739,5.743 15.542,5.581 15.313,5.563 L10.747,5.200 C10.535,5.183 10.350,5.043 10.266,4.836 L8.452,0.366 C8.361,0.142 8.153,-0.003 7.923,0.000 C7.694,0.002 7.488,0.150 7.401,0.376 L5.666,4.881 C5.586,5.090 5.403,5.234 5.191,5.255 L0.632,5.707 C0.403,5.730 0.210,5.896 0.141,6.128 C0.072,6.361 0.141,6.615 0.316,6.773 L3.810,9.920 C3.972,10.066 4.044,10.295 3.998,10.515 L2.993,15.265 C2.943,15.503 3.032,15.750 3.219,15.892 C3.406,16.033 3.654,16.042 3.850,15.913 L7.744,13.352 C7.925,13.234 8.152,13.231 8.335,13.347 L12.274,15.830 C12.471,15.954 12.720,15.941 12.904,15.796 C13.088,15.651 13.173,15.402 13.118,15.165 L12.032,10.436 C11.981,10.217 12.049,9.986 12.208,9.837 L15.647,6.622 Z"/>
</svg>
