<svg
 xmlns="http://www.w3.org/2000/svg"
 xmlns:xlink="http://www.w3.org/1999/xlink"
 width="14px" height="14px">
<path
 d="M14.000,4.917 L4.917,14.000 L3.308,12.391 C3.421,12.333 3.529,12.261 3.624,12.167 C4.119,11.672 4.119,10.870 3.624,10.376 C3.130,9.881 2.328,9.881 1.833,10.376 C1.739,10.471 1.668,10.579 1.609,10.692 L0.000,9.084 L9.083,-0.000 L10.692,1.610 C10.579,1.668 10.470,1.739 10.375,1.834 C9.881,2.329 9.881,3.131 10.375,3.625 C10.870,4.120 11.671,4.120 12.166,3.625 C12.262,3.530 12.333,3.421 12.391,3.308 L14.000,4.917 Z"/>
</svg>
