<svg 
 xmlns="http://www.w3.org/2000/svg"
 xmlns:xlink="http://www.w3.org/1999/xlink"
 width="14px" height="14px">
<path
 d="M5.963,8.033 C5.880,7.941 5.763,7.881 5.630,7.881 L1.858,7.876 C1.608,7.875 1.406,8.077 1.406,8.327 C1.407,8.577 1.698,8.857 1.823,8.983 L2.777,9.937 L0.001,12.686 L1.313,13.998 L4.049,11.209 L5.003,12.163 C5.209,12.369 5.419,12.589 5.669,12.589 C5.918,12.590 6.120,12.388 6.120,12.138 L6.115,8.366 C6.114,8.232 6.055,8.116 5.963,8.033 ZM11.279,4.014 L13.998,1.313 L12.686,0.001 L9.986,2.713 L9.016,1.736 C8.806,1.525 8.593,1.300 8.339,1.300 C8.085,1.299 7.880,1.506 7.880,1.762 L7.885,5.622 C7.885,5.759 7.946,5.878 8.040,5.963 C8.124,6.057 8.243,6.118 8.379,6.119 L12.215,6.124 C12.469,6.124 12.674,5.918 12.674,5.662 C12.673,5.407 12.377,5.119 12.250,4.991 L11.279,4.014 Z"/>
</svg>
