<svg
 xmlns="http://www.w3.org/2000/svg"
 xmlns:xlink="http://www.w3.org/1999/xlink"
 width="13px" height="13px">
<path
 d="M7.870,12.381 C4.630,13.110 1.399,11.077 0.667,7.848 C-0.065,4.618 1.976,1.398 5.217,0.669 C8.456,-0.060 11.686,1.974 12.418,5.203 C13.150,8.432 11.110,11.652 7.870,12.381 ZM8.526,6.079 C8.279,4.989 7.189,4.303 6.095,4.549 C5.002,4.796 4.313,5.882 4.560,6.972 C4.807,8.061 5.897,8.748 6.990,8.501 C8.084,8.255 8.773,7.169 8.526,6.079 ZM11.801,5.539 C11.671,4.965 11.453,4.660 11.429,4.627 L11.386,4.570 L8.738,5.964 L8.719,5.973 L8.752,6.046 C8.755,6.052 8.778,6.106 8.796,6.186 C8.820,6.291 8.825,6.397 8.811,6.493 L8.799,6.569 L11.793,7.278 L11.816,7.284 L11.831,7.194 C11.926,6.605 11.916,6.048 11.801,5.539 ZM6.753,7.452 C6.240,7.568 5.729,7.246 5.613,6.735 C5.497,6.223 5.820,5.713 6.333,5.598 C6.846,5.482 7.358,5.804 7.474,6.316 C7.590,6.827 7.266,7.337 6.753,7.452 Z"/>
</svg>
