<svg
 xmlns="http://www.w3.org/2000/svg"
 xmlns:xlink="http://www.w3.org/1999/xlink"
 width="26px" height="22px">
<path
 d="M25.283,0.405 C24.251,1.041 23.109,1.503 21.893,1.754 C20.921,0.672 19.536,-0.001 18.001,-0.001 C15.055,-0.001 12.666,2.487 12.666,5.553 C12.666,5.988 12.714,6.412 12.805,6.819 C8.372,6.587 4.442,4.374 1.811,1.014 C1.352,1.833 1.090,2.787 1.090,3.806 C1.090,5.734 2.032,7.434 3.462,8.429 C2.588,8.399 1.766,8.148 1.046,7.732 L1.046,7.802 C1.046,10.493 2.885,12.737 5.324,13.249 C4.877,13.375 4.406,13.445 3.919,13.445 C3.574,13.445 3.241,13.408 2.914,13.343 C3.594,15.550 5.563,17.156 7.896,17.202 C6.071,18.692 3.770,19.579 1.272,19.579 C0.841,19.579 0.417,19.553 -0.000,19.504 C2.361,21.078 5.163,21.998 8.176,21.998 C17.987,21.998 23.352,13.534 23.352,6.193 L23.334,5.473 C24.380,4.692 25.286,3.714 26.000,2.601 C25.043,3.043 24.016,3.343 22.937,3.477 C24.039,2.789 24.883,1.699 25.283,0.405 Z"/>
</svg>
