<svg
 xmlns="http://www.w3.org/2000/svg"
 xmlns:xlink="http://www.w3.org/1999/xlink"
 width="20px" height="20px">
<path fill-rule="evenodd"  fill="rgb(128, 233, 117)"
 d="M10.000,20.000 C4.477,20.000 -0.000,15.523 -0.000,10.000 C-0.000,4.477 4.477,-0.000 10.000,-0.000 C15.523,-0.000 20.000,4.477 20.000,10.000 C20.000,15.523 15.523,20.000 10.000,20.000 ZM10.000,1.667 C5.398,1.667 1.667,5.398 1.667,10.000 C1.667,14.602 5.398,18.333 10.000,18.333 C14.602,18.333 18.333,14.602 18.333,10.000 C18.333,5.398 14.602,1.667 10.000,1.667 ZM12.744,8.923 L10.833,7.012 L10.833,15.000 C10.833,15.460 10.460,15.833 10.000,15.833 C9.540,15.833 9.167,15.460 9.167,15.000 L9.167,7.012 L7.256,8.923 C6.931,9.248 6.403,9.248 6.077,8.923 C5.752,8.597 5.752,8.069 6.077,7.744 L9.411,4.411 C9.411,4.410 9.411,4.410 9.412,4.410 C9.431,4.391 9.451,4.373 9.472,4.355 C9.481,4.347 9.492,4.341 9.502,4.333 C9.514,4.324 9.525,4.315 9.537,4.307 C9.549,4.299 9.562,4.292 9.574,4.285 C9.585,4.278 9.596,4.271 9.607,4.265 C9.620,4.258 9.632,4.253 9.645,4.247 C9.657,4.241 9.669,4.235 9.681,4.230 C9.693,4.225 9.706,4.221 9.718,4.216 C9.732,4.212 9.745,4.207 9.758,4.202 C9.771,4.199 9.783,4.196 9.796,4.193 C9.810,4.189 9.823,4.185 9.837,4.183 C9.852,4.180 9.867,4.178 9.881,4.176 C9.893,4.174 9.905,4.172 9.918,4.171 C9.972,4.165 10.028,4.165 10.082,4.171 C10.095,4.172 10.107,4.174 10.119,4.176 C10.133,4.178 10.148,4.180 10.163,4.183 C10.177,4.185 10.190,4.189 10.204,4.193 C10.217,4.196 10.229,4.199 10.242,4.202 C10.255,4.207 10.268,4.212 10.281,4.216 C10.294,4.221 10.306,4.225 10.319,4.230 C10.331,4.235 10.343,4.241 10.355,4.247 C10.367,4.253 10.380,4.258 10.393,4.265 C10.404,4.271 10.415,4.278 10.426,4.285 C10.438,4.292 10.451,4.299 10.463,4.307 C10.475,4.315 10.486,4.324 10.498,4.333 C10.508,4.341 10.518,4.347 10.528,4.355 C10.549,4.373 10.569,4.391 10.588,4.410 C10.589,4.410 10.589,4.410 10.589,4.411 L13.923,7.744 C14.248,8.069 14.248,8.597 13.923,8.923 C13.597,9.248 13.070,9.248 12.744,8.923 Z"/>
</svg>
