<svg
 xmlns="http://www.w3.org/2000/svg"
 xmlns:xlink="http://www.w3.org/1999/xlink"
 width="16px" height="10px">
<path fill-rule=""  fill=""
 d="M10.000,4.000 L10.000,2.000 C10.000,0.938 10.000,-0.000 10.000,-0.000 C10.000,-0.000 9.256,-0.017 8.000,-0.000 L2.000,-0.000 C1.292,-0.000 -0.000,-0.000 -0.000,-0.000 C-0.000,-0.000 -0.000,1.318 -0.000,2.000 L-0.000,8.000 C-0.000,8.681 -0.000,10.000 -0.000,10.000 C-0.000,10.000 1.292,10.000 2.000,10.000 L8.000,10.000 C8.708,10.000 10.000,10.000 10.000,10.000 L10.000,6.000 L16.000,10.000 L16.000,-0.000 L10.000,4.000 Z"/>
</svg>
