<svg
 xmlns="http://www.w3.org/2000/svg"
 xmlns:xlink="http://www.w3.org/1999/xlink"
 width="29px" height="19px">
<path
 d="M25.711,8.085 C26.124,7.530 26.451,7.084 26.693,6.748 C28.434,4.335 29.189,2.795 28.957,2.123 L28.867,1.965 C28.807,1.871 28.650,1.784 28.399,1.705 C28.147,1.627 27.825,1.614 27.433,1.666 L23.084,1.698 C22.984,1.688 22.883,1.690 22.782,1.705 C22.682,1.721 22.616,1.737 22.586,1.753 C22.556,1.769 22.531,1.781 22.511,1.792 L22.450,1.839 C22.400,1.870 22.345,1.925 22.284,2.005 C22.224,2.083 22.173,2.175 22.133,2.279 C21.660,3.549 21.122,4.729 20.518,5.820 C20.145,6.470 19.803,7.035 19.491,7.512 C19.179,7.989 18.917,8.340 18.706,8.565 C18.495,8.791 18.303,8.973 18.132,9.108 C17.961,9.245 17.830,9.303 17.740,9.282 C17.649,9.261 17.564,9.240 17.483,9.218 C17.342,9.124 17.229,8.996 17.143,8.833 C17.058,8.671 17.000,8.466 16.970,8.220 C16.940,7.973 16.922,7.761 16.917,7.582 C16.912,7.404 16.915,7.152 16.925,6.827 C16.935,6.502 16.940,6.281 16.940,6.166 C16.940,5.768 16.947,5.335 16.963,4.868 C16.978,4.401 16.990,4.031 17.000,3.759 C17.010,3.486 17.015,3.198 17.015,2.893 C17.015,2.589 16.997,2.350 16.962,2.177 C16.927,2.005 16.874,1.837 16.804,1.673 C16.733,1.511 16.630,1.385 16.494,1.296 C16.358,1.207 16.190,1.136 15.988,1.084 C15.455,0.957 14.775,0.890 13.950,0.879 C12.078,0.859 10.875,0.984 10.342,1.257 C10.130,1.372 9.939,1.530 9.768,1.729 C9.586,1.960 9.561,2.086 9.692,2.107 C10.296,2.201 10.724,2.427 10.976,2.783 L11.066,2.972 C11.137,3.109 11.207,3.350 11.278,3.695 C11.348,4.042 11.393,4.425 11.414,4.844 C11.464,5.611 11.464,6.265 11.414,6.811 C11.363,7.357 11.316,7.782 11.270,8.085 C11.225,8.390 11.157,8.636 11.067,8.825 C10.976,9.014 10.916,9.129 10.885,9.172 C10.855,9.213 10.830,9.240 10.810,9.250 C10.679,9.302 10.543,9.329 10.402,9.329 C10.261,9.329 10.090,9.255 9.889,9.108 C9.687,8.961 9.478,8.759 9.262,8.502 C9.046,8.246 8.802,7.886 8.530,7.424 C8.258,6.963 7.976,6.417 7.685,5.788 L7.443,5.332 C7.292,5.038 7.086,4.611 6.824,4.050 C6.562,3.488 6.331,2.946 6.130,2.421 C6.049,2.201 5.928,2.033 5.767,1.918 L5.692,1.870 C5.642,1.828 5.561,1.784 5.450,1.736 C5.339,1.690 5.224,1.655 5.103,1.635 L0.966,1.665 C0.543,1.665 0.256,1.766 0.105,1.965 L0.045,2.059 C0.015,2.112 -0.000,2.196 -0.000,2.311 C-0.000,2.427 0.030,2.568 0.090,2.736 C0.695,4.215 1.351,5.642 2.061,7.015 C2.771,8.390 3.387,9.496 3.910,10.335 C4.434,11.175 4.967,11.967 5.511,12.712 C6.055,13.457 6.414,13.934 6.590,14.143 C6.766,14.353 6.905,14.511 7.005,14.616 L7.383,14.994 C7.624,15.245 7.979,15.546 8.447,15.898 C8.915,16.250 9.433,16.596 10.002,16.936 C10.571,17.278 11.233,17.555 11.988,17.771 C12.743,17.986 13.477,18.073 14.192,18.030 L15.928,18.030 C16.281,17.998 16.547,17.884 16.728,17.684 L16.789,17.605 C16.829,17.543 16.867,17.445 16.902,17.315 C16.937,17.184 16.955,17.039 16.955,16.882 C16.945,16.431 16.978,16.024 17.053,15.662 C17.128,15.300 17.214,15.028 17.310,14.844 C17.406,14.661 17.513,14.506 17.635,14.380 C17.755,14.253 17.841,14.179 17.891,14.152 C17.942,14.126 17.982,14.108 18.012,14.096 C18.253,14.013 18.538,14.094 18.865,14.340 C19.192,14.587 19.499,14.891 19.786,15.253 C20.073,15.615 20.418,16.021 20.820,16.473 C21.223,16.924 21.575,17.260 21.877,17.480 L22.179,17.669 C22.381,17.794 22.642,17.909 22.964,18.015 C23.286,18.120 23.568,18.146 23.810,18.093 L27.675,18.030 C28.057,18.030 28.354,17.965 28.566,17.834 C28.777,17.703 28.903,17.558 28.943,17.401 C28.983,17.244 28.986,17.066 28.951,16.866 C28.916,16.667 28.880,16.528 28.845,16.450 C28.810,16.371 28.777,16.305 28.747,16.253 C28.243,15.309 27.282,14.150 25.863,12.776 L25.833,12.745 L25.818,12.729 L25.803,12.713 L25.788,12.713 C25.143,12.073 24.736,11.643 24.565,11.422 C24.253,11.003 24.182,10.579 24.354,10.148 C24.474,9.822 24.926,9.135 25.711,8.085 Z"/>
</svg>
