<svg 
 xmlns="http://www.w3.org/2000/svg"
 xmlns:xlink="http://www.w3.org/1999/xlink"
 width="13px" height="10px">
<path
 d="M6.340,8.624 C6.340,8.861 6.351,9.287 6.340,9.288 C5.617,9.360 5.147,8.710 5.045,8.624 L3.101,6.634 L1.158,6.634 C0.849,6.634 0.510,6.284 0.510,5.970 L0.510,3.926 C0.510,3.612 0.760,3.357 1.069,3.357 L3.101,3.316 L5.045,1.325 C6.048,0.194 6.340,1.070 6.340,1.325 L6.340,8.624 ZM8.816,8.012 C8.802,8.013 8.789,8.013 8.776,8.013 C8.628,8.013 8.485,7.954 8.380,7.847 L8.305,7.770 C8.109,7.571 8.086,7.256 8.251,7.029 C8.670,6.455 8.891,5.774 8.891,5.060 C8.891,4.291 8.640,3.571 8.165,2.976 C7.985,2.750 8.001,2.421 8.204,2.215 L8.278,2.139 C8.390,2.025 8.540,1.963 8.702,1.973 C8.859,1.981 9.007,2.057 9.107,2.181 C9.765,3.001 10.113,3.997 10.113,5.060 C10.113,6.050 9.805,6.993 9.223,7.785 C9.126,7.917 8.977,8.000 8.816,8.012 ZM11.126,9.770 C11.025,9.892 10.879,9.965 10.723,9.971 C10.715,9.972 10.707,9.972 10.699,9.972 C10.551,9.972 10.409,9.912 10.304,9.805 L10.230,9.731 C10.025,9.522 10.011,9.188 10.198,8.962 C11.100,7.871 11.596,6.485 11.596,5.060 C11.596,3.577 11.064,2.150 10.099,1.041 C9.904,0.816 9.914,0.475 10.122,0.262 L10.195,0.188 C10.304,0.076 10.445,0.015 10.607,0.020 C10.761,0.025 10.906,0.094 11.009,0.211 C12.175,1.548 12.818,3.270 12.818,5.060 C12.818,6.782 12.217,8.455 11.126,9.770 Z"/>
</svg>
