<svg
 xmlns="http://www.w3.org/2000/svg"
 xmlns:xlink="http://www.w3.org/1999/xlink"
 width="14px" height="14px">
<path fill-rule=""  fill=""
 d="M11.950,2.050 C13.272,3.372 14.000,5.130 14.000,7.000 C14.000,8.870 13.272,10.628 11.950,11.950 C10.628,13.272 8.870,14.000 7.000,14.000 C5.130,14.000 3.372,13.272 2.050,11.950 C0.728,10.628 -0.000,8.870 -0.000,7.000 C-0.000,5.130 0.728,3.372 2.050,2.050 C3.372,0.728 5.130,-0.000 7.000,-0.000 C8.870,-0.000 10.628,0.728 11.950,2.050 ZM11.331,11.331 C12.193,10.469 12.766,9.395 13.003,8.227 C12.818,8.498 12.642,8.598 12.533,7.991 C12.421,7.002 11.512,7.634 10.940,7.282 C10.339,7.688 8.986,6.494 9.216,7.841 C9.571,8.448 11.130,7.028 10.353,8.313 C9.857,9.210 8.539,11.197 8.711,12.226 C8.732,13.727 7.178,12.539 6.642,12.042 C6.282,11.045 6.519,9.302 5.577,8.814 C4.554,8.769 3.677,8.677 3.280,7.533 C3.042,6.715 3.534,5.498 4.411,5.310 C5.694,4.503 6.152,6.254 7.355,6.286 C7.729,5.895 8.747,5.771 8.832,5.333 C8.042,5.193 9.834,4.669 8.756,4.370 C8.162,4.440 7.779,4.987 8.095,5.450 C6.943,5.718 6.906,3.783 5.799,4.394 C5.771,5.359 3.992,4.706 5.184,4.511 C5.593,4.332 4.516,3.813 5.098,3.908 C5.384,3.892 6.346,3.555 6.086,3.328 C6.622,2.995 7.073,4.125 7.597,3.302 C7.976,2.670 7.438,2.553 6.963,2.873 C6.696,2.574 7.436,1.926 8.089,1.646 C8.307,1.553 8.515,1.502 8.674,1.517 C9.002,1.897 9.611,1.963 9.643,1.471 C8.828,1.081 7.930,0.875 7.000,0.875 C5.665,0.875 4.396,1.299 3.345,2.083 C3.628,2.213 3.788,2.374 3.516,2.580 C3.305,3.209 2.447,4.055 1.694,3.935 C1.304,4.609 1.046,5.351 0.936,6.130 C1.567,6.338 1.712,6.751 1.577,6.889 C1.255,7.169 1.058,7.566 0.956,8.001 C1.161,9.256 1.752,10.414 2.669,11.331 C3.826,12.488 5.364,13.125 7.000,13.125 C8.636,13.125 10.174,12.488 11.331,11.331 Z"/>
</svg>
